<svg width="70" height="70" viewBox="0 0 70 70" fill="none" xmlns="http://www.w3.org/2000/svg">
<g opacity="0.56">
<g opacity="0.46">
<path fill-rule="evenodd" clip-rule="evenodd" d="M27.4998 7.5C26.1191 7.5 24.9998 8.61929 24.9998 10C24.9998 11.3807 26.1191 12.5 27.4998 12.5H42.4998C43.8805 12.5 44.9998 11.3807 44.9998 10C44.9998 8.61929 43.8805 7.5 42.4998 7.5H27.4998ZM41.697 21.3322C37.9565 19.7828 33.7944 19.5783 29.9201 20.7536C26.0457 21.9289 22.6987 24.4112 20.4493 27.7776C18.2 31.144 17.1875 35.1861 17.5843 39.2154C17.9811 43.2446 19.7628 47.0115 22.6257 49.8744C25.4885 52.7373 29.2555 54.519 33.2847 54.9158C37.3139 55.3126 41.3561 54.3001 44.7225 52.0508C48.0889 49.8014 50.5712 46.4544 51.7465 42.58C52.9218 38.7057 52.7173 34.5436 51.1679 30.8031C50.6396 29.5275 51.2453 28.0651 52.5209 27.5367C53.7965 27.0083 55.259 27.6141 55.7873 28.8897C57.7794 33.6989 58.0423 39.0501 56.5312 44.0315C55.0201 49.0128 51.8286 53.3161 47.5004 56.2081C43.1721 59.1001 37.9751 60.4019 32.7946 59.8917C27.6142 59.3815 22.771 57.0908 19.0901 53.41C15.4093 49.7291 13.1186 44.8859 12.6084 39.7054C12.0982 34.525 13.4 29.3279 16.292 24.9997C19.184 20.6715 23.4873 17.48 28.4686 15.9689C33.45 14.4578 38.8012 14.7207 43.6104 16.7128C44.886 17.2412 45.4918 18.7036 44.9634 19.9792C44.435 21.2548 42.9726 21.8605 41.697 21.3322ZM33.2318 39.2679C32.2555 38.2916 32.2555 36.7087 33.2318 35.7324L50.9095 18.0547C51.8858 17.0784 53.4687 17.0784 54.445 18.0547C55.4213 19.031 55.4213 20.6139 54.445 21.5903L36.7673 39.2679C35.791 40.2442 34.2081 40.2442 33.2318 39.2679Z" fill="white" fill-opacity="0.96"/>
</g>
</g>
</svg>
